<?xml version="1.0" standalone="no"?>
<!DOCTYPE svg PUBLIC "-//W3C//DTD SVG 20010904//EN"
 "http://www.w3.org/TR/2001/REC-SVG-20010904/DTD/svg10.dtd">
<svg version="1.0" xmlns="http://www.w3.org/2000/svg"
 width="475.000000pt" height="525.000000pt" viewBox="0 0 475.000000 525.000000"
 preserveAspectRatio="xMidYMid meet">

<g transform="translate(0.000000,525.000000) scale(0.100000,-0.100000)"
fill="#000000" stroke="none">
<path d="M2110 4813 c-619 -60 -1166 -378 -1507 -875 -230 -334 -346 -691
-360 -1103 -17 -513 157 -1003 494 -1396 311 -362 727 -593 1219 -679 371 -64
777 -14 1144 143 629 268 1083 847 1199 1527 113 659 -101 1326 -576 1797
-387 384 -908 596 -1448 591 -71 -1 -146 -3 -165 -5z m148 -210 c3 -38 6 -43
27 -43 21 0 24 5 27 43 3 42 3 42 43 42 l40 0 0 -117 0 -118 -32 -6 c-43 -8
-53 0 -53 47 0 35 -3 39 -25 39 -22 0 -25 -4 -25 -39 0 -42 -15 -53 -62 -44
-22 4 -23 7 -23 111 1 59 4 113 9 120 4 8 21 12 39 10 30 -3 32 -6 35 -45z
m-183 -3 c0 -35 0 -35 -39 -32 -44 4 -42 -13 3 -23 36 -8 71 -40 71 -65 0 -61
-50 -100 -129 -100 -43 0 -52 11 -44 53 5 25 8 26 46 20 46 -7 45 10 0 22 -44
10 -63 34 -63 76 0 55 45 91 109 87 45 -3 46 -3 46 -38z m494 17 c7 -9 8 -24
2 -44 -5 -16 -12 -59 -16 -94 -10 -88 -18 -100 -58 -92 -17 3 -33 7 -35 8 -2
2 4 50 12 108 9 57 16 110 16 116 0 16 65 14 79 -2z m159 -28 c32 -11 35 -17
47 -84 l7 -40 14 48 c8 26 20 47 27 47 30 0 57 -14 57 -28 0 -23 -60 -211 -69
-216 -4 -3 -24 -1 -44 5 -33 9 -36 13 -48 67 l-12 57 -14 -47 c-7 -27 -15 -48
-17 -48 -10 0 -66 23 -66 27 0 27 66 223 75 223 7 0 26 -5 43 -11z m-876 -109
c20 -58 37 -108 37 -112 1 -4 -17 -13 -39 -19 -38 -11 -42 -11 -68 12 -15 14
-35 31 -45 38 -16 13 -16 11 -2 -22 8 -20 15 -43 15 -51 0 -19 -57 -39 -67
-24 -8 15 -73 200 -73 211 0 4 16 15 36 23 35 15 38 14 63 -8 60 -54 63 -55
46 -9 -13 39 -13 41 8 56 39 27 50 15 89 -95z m-311 -27 c11 -29 8 -32 -47
-71 -18 -12 -18 -13 1 -9 11 3 28 8 37 12 13 5 21 0 30 -20 11 -25 10 -29 -17
-52 -30 -26 -27 -25 38 1 32 12 49 -3 45 -39 -3 -19 -106 -84 -134 -85 -15 0
-126 198 -118 211 6 10 133 78 147 79 4 0 12 -12 18 -27z m1612 -34 c56 -29
57 -32 31 -127 -13 -48 -27 -99 -30 -114 -8 -33 -29 -36 -63 -9 -15 11 -22 24
-18 34 9 25 -20 44 -44 29 -23 -15 -72 3 -77 28 -2 13 159 170 174 170 3 0 15
-5 27 -11z m-1845 -104 c16 -35 15 -55 -2 -55 -8 0 -24 -8 -37 -19 l-22 -18
21 -36 c24 -37 47 -53 57 -37 3 5 1 18 -4 28 -8 15 -5 24 13 41 12 11 26 21
32 21 11 0 64 -65 64 -79 0 -23 -64 -81 -100 -92 -52 -16 -93 1 -131 54 -49
67 -36 135 35 187 49 37 60 37 74 5z m2061 -49 c27 -28 22 -43 -33 -95 -39
-38 -45 -61 -21 -81 20 -17 19 -33 -5 -55 -19 -17 -21 -17 -47 0 -38 24 -83
67 -83 78 0 5 15 26 33 47 17 20 49 58 70 83 21 26 44 47 51 47 7 0 23 -11 35
-24z m206 -192 l27 -35 -66 -100 c-36 -54 -70 -99 -75 -99 -5 0 -19 12 -30 26
-15 19 -18 31 -11 44 12 22 -13 47 -42 42 -22 -4 -58 24 -58 44 0 15 183 113
211 113 9 1 29 -15 44 -35z m-1300 -58 l0 -69 -59 -20 c-41 -14 -74 -34 -109
-68 -28 -27 -54 -46 -57 -42 -13 16 -52 225 -43 234 13 13 162 38 218 36 l50
-2 0 -69z m189 59 c43 -7 83 -18 88 -23 9 -9 -29 -210 -43 -226 -4 -5 -20 5
-34 23 -34 39 -98 77 -147 86 l-38 7 0 74 0 74 48 0 c26 -1 83 -7 126 -15z
m-1394 -51 c36 -31 68 -62 72 -68 22 -33 -3 -111 -44 -140 -41 -29 -82 -20
-149 32 -85 65 -90 75 -57 108 l26 27 63 -52 c34 -28 67 -50 73 -48 28 9 12
36 -44 77 -33 24 -60 51 -60 60 0 16 35 60 48 60 4 0 36 -25 72 -56z m1677
-40 c117 -59 119 -31 -21 -329 -66 -143 -125 -266 -130 -274 -7 -10 -26 -12
-78 -9 -38 3 -71 8 -75 11 -13 14 17 126 49 177 32 52 33 57 34 164 1 97 30
286 49 316 7 12 90 -15 172 -56z m-734 -71 c17 -84 26 -154 25 -204 -2 -69 1
-83 29 -137 34 -64 62 -177 47 -192 -9 -9 -141 -17 -148 -9 -2 2 -47 96 -99
209 -52 113 -109 234 -126 270 l-32 65 23 19 c26 21 126 72 178 92 74 27 74
28 103 -113z m-189 -273 c68 -146 120 -269 115 -274 -4 -4 -36 -9 -71 -10 -54
-1 -63 1 -62 16 1 10 -1 16 -5 15 -11 -4 -52 40 -56 59 -1 11 -8 18 -13 17
-11 -3 -232 260 -232 275 0 19 176 173 193 169 4 -1 63 -121 131 -267z m1095
236 c58 -44 144 -131 140 -143 -2 -5 -71 -90 -153 -191 l-149 -182 -46 0 c-54
0 -91 9 -91 21 0 5 41 97 91 206 50 109 104 226 120 261 15 34 31 62 35 62 3
0 27 -15 53 -34z m695 -45 c30 -31 30 -56 1 -67 -17 -7 -50 18 -67 50 -8 15
-7 22 8 33 24 18 26 17 58 -16z m-2732 -36 c15 -17 28 -23 44 -19 32 8 64 -27
64 -71 0 -36 -47 -145 -63 -145 -22 0 -207 106 -207 119 0 18 37 79 68 114 32
34 66 35 94 2z m2953 -108 l20 -38 -85 -79 c-47 -44 -91 -79 -97 -80 -7 0 -19
13 -28 30 -12 23 -13 34 -4 49 17 26 4 51 -24 51 -18 0 -28 8 -37 30 -7 17
-10 34 -6 37 8 8 195 42 221 40 12 -1 28 -17 40 -40z m-2263 -69 c46 -57 95
-118 108 -137 l23 -33 -23 12 c-27 14 -90 22 -90 12 0 -4 -8 -8 -18 -9 -11 -1
-51 31 -97 77 l-78 78 39 51 c21 27 42 50 46 51 3 0 44 -46 90 -102z m1558 45
l40 -57 -27 -28 c-15 -15 -33 -28 -40 -28 -7 0 -74 -36 -149 -81 -75 -44 -138
-79 -140 -76 -8 7 249 326 263 326 7 1 30 -25 53 -56z m-2360 -128 c45 -19 88
-35 95 -35 25 0 36 -25 24 -59 -6 -17 -16 -31 -22 -31 -7 0 -57 17 -112 38
-107 41 -119 54 -91 97 9 14 18 25 20 25 2 0 41 -16 86 -35z m3150 -44 c24
-45 14 -58 -62 -83 -72 -23 -73 -23 -70 -56 3 -27 -1 -34 -24 -42 -21 -8 -31
-8 -40 2 -14 15 -46 119 -39 126 6 6 197 71 212 71 7 1 17 -8 23 -18z m-1748
-20 c24 -10 57 -23 73 -28 23 -7 30 -14 31 -36 2 -42 14 -45 14 -4 0 32 4 37
28 42 15 4 47 15 71 26 24 11 46 18 48 15 3 -3 0 -27 -7 -55 l-12 -50 -56 -3
c-54 -3 -55 -3 -37 -22 10 -10 19 -33 19 -52 1 -26 4 -33 16 -28 8 4 38 10 65
14 28 5 59 10 70 13 11 3 59 11 107 18 66 9 94 9 113 1 26 -12 35 -42 13 -43
-7 0 -2 -5 11 -10 13 -5 39 -7 58 -3 26 5 41 1 68 -17 19 -13 35 -29 35 -35 0
-11 -130 -53 -225 -73 -129 -27 -357 -48 -395 -36 -12 4 -19 14 -18 23 2 11
-5 18 -19 20 -13 2 -23 10 -23 18 0 10 -13 14 -52 13 -83 -2 -104 -10 -100
-43 3 -27 3 -27 -45 -21 -162 23 -339 81 -330 110 2 5 19 21 38 34 30 20 42
22 104 18 39 -3 77 -8 85 -11 10 -4 19 2 25 16 11 26 62 34 57 9 -2 -10 4 -12
25 -6 15 3 28 7 28 8 5 23 35 60 57 69 21 10 28 18 24 33 -12 51 -18 95 -12
95 3 0 25 -9 48 -19z m803 -62 c-58 -60 -145 -95 -145 -58 0 11 150 99 169 99
9 0 0 -16 -24 -41z m-1261 16 c-4 -8 -8 -15 -10 -15 -2 0 -4 7 -4 15 0 8 4 15
10 15 5 0 7 -7 4 -15z m-984 -69 c84 -43 110 -63 105 -79 -2 -7 -6 -24 -9 -39
-5 -23 -12 -28 -39 -28 l-32 -1 28 -15 c27 -15 33 -36 21 -81 -6 -22 -10 -23
-130 -23 -119 0 -124 1 -124 21 0 11 5 30 11 41 10 19 17 20 78 14 l66 -6 -35
20 c-19 10 -50 19 -68 20 -33 0 -33 1 -27 33 11 47 11 47 78 48 l62 1 -57 26
c-49 22 -58 31 -58 52 0 32 17 51 39 42 9 -4 50 -25 91 -46z m1030 18 c0 -3
-7 -1 -15 6 -8 7 -15 17 -15 22 0 5 7 3 15 -6 8 -8 15 -18 15 -22z m2152 -125
c38 -6 70 -14 73 -18 2 -5 7 -26 11 -47 l6 -40 -102 -47 c-56 -26 -108 -47
-115 -47 -26 0 -35 74 -10 84 23 8 19 56 -4 56 -21 0 -31 19 -31 57 0 24 1 25
53 19 28 -4 82 -12 119 -17z m-1521 -262 c56 -30 95 -99 85 -151 -14 -71 -98
-135 -179 -136 -113 0 -208 102 -177 194 12 37 63 90 100 105 46 18 124 13
171 -12z m-407 -283 c9 -3 16 -15 16 -26 0 -10 5 -16 10 -13 6 3 10 1 10 -4 0
-6 3 -10 8 -9 4 1 34 -4 67 -12 88 -20 363 -17 435 4 30 10 61 17 68 18 6 1
12 9 12 19 0 27 62 36 95 15 21 -14 25 -24 25 -66 0 -31 -6 -54 -16 -65 -47
-47 -200 -75 -409 -75 -211 0 -361 27 -408 74 -23 23 -23 103 0 128 16 18 57
24 87 12z m-335 -279 c18 -5 17 -9 -17 -43 l-37 -38 -17 27 c-9 15 -24 31 -33
36 -13 8 -12 11 10 23 15 8 31 23 37 34 10 19 11 18 24 -7 8 -14 23 -28 33
-32z m150 -69 c13 -32 30 -50 57 -64 l37 -19 -43 -24 c-27 -15 -51 -38 -63
-63 l-20 -38 -21 43 c-13 26 -36 54 -59 69 l-39 24 29 9 c37 12 68 42 83 78 7
16 14 29 16 29 2 0 12 -20 23 -44z m-241 -121 c0 -5 -6 -19 -14 -29 -13 -19
-14 -19 -32 5 -20 23 -20 24 1 45 20 20 22 21 33 6 6 -10 12 -21 12 -27z
m1393 -235 c17 -10 19 -22 19 -110 0 -91 -2 -100 -21 -110 -45 -25 -89 16 -89
81 0 17 -8 19 -65 19 l-65 0 0 -40 0 -40 48 0 c53 0 72 -12 72 -46 0 -32 -24
-46 -72 -42 l-43 3 -3 -42 -3 -43 107 0 c113 0 144 -11 144 -50 0 -37 -24 -42
-192 -42 -90 1 -168 1 -175 1 -7 1 -17 11 -24 22 -9 18 -7 27 10 50 29 40 27
86 -5 111 -31 25 -29 59 5 73 22 9 23 14 18 78 -5 59 -3 71 14 88 19 19 28 20
125 13 99 -6 106 -6 125 15 22 23 41 26 70 11z m-1473 -32 c8 -8 12 -51 12
-128 0 -104 -2 -119 -20 -135 -14 -12 -28 -16 -50 -12 -16 4 -30 3 -30 -1 0
-19 43 -52 79 -62 55 -15 69 -58 28 -85 -20 -13 -30 -13 -76 -1 -61 16 -102
51 -131 113 -11 24 -25 41 -30 38 -6 -3 -10 -33 -10 -66 0 -46 -4 -63 -20 -79
-24 -24 -38 -25 -68 -4 -21 15 -22 21 -22 172 -1 122 -4 161 -15 176 -18 24
-19 58 -3 74 8 8 62 12 178 12 116 0 170 -4 178 -12z m423 -5 c6 -6 18 -60 26
-120 7 -59 23 -143 34 -185 23 -86 21 -103 -15 -120 -38 -17 -69 8 -84 70 -15
55 -25 62 -97 62 -70 0 -80 -7 -99 -66 -18 -56 -41 -76 -78 -66 -40 10 -43 29
-20 120 36 142 44 213 27 232 -19 21 -19 54 -1 72 18 19 289 19 307 1z m579
-3 c5 -8 10 -20 10 -27 0 -31 32 -244 43 -293 16 -69 12 -89 -20 -101 -36 -13
-70 11 -82 58 -11 41 -38 198 -43 248 -2 22 -9 31 -24 33 -18 3 -22 -4 -28
-45 -3 -26 -3 -98 0 -159 7 -109 6 -111 -17 -127 -30 -21 -42 -21 -69 1 -20
16 -22 28 -25 172 -4 153 -4 155 -27 155 -21 0 -23 -6 -33 -90 -7 -49 -20
-123 -30 -163 -20 -82 -42 -102 -90 -80 -30 13 -32 42 -10 133 21 87 30 211
16 219 -16 10 -14 64 3 73 8 4 105 8 216 8 166 0 203 -3 210 -15z m644 14 c9
-3 36 -34 61 -68 24 -33 65 -83 90 -111 l45 -50 0 98 c0 121 7 137 61 137 32
0 41 -4 47 -22 4 -13 6 -107 4 -211 -3 -187 -3 -187 -28 -204 -36 -23 -71 -5
-80 42 -5 27 -26 56 -85 116 l-79 79 0 -105 c0 -93 -2 -107 -21 -126 -14 -14
-27 -18 -42 -13 -46 14 -47 17 -47 217 0 163 2 193 17 209 17 19 31 22 57 12z
m-1536 -626 c15 -15 16 -60 0 -76 -9 -9 -8 -16 5 -30 23 -25 21 -32 -7 -32
-16 0 -27 7 -31 20 -3 11 -11 20 -16 20 -5 0 -9 -9 -9 -20 0 -13 -7 -20 -20
-20 -18 0 -20 7 -20 75 l0 75 43 0 c24 0 48 -5 55 -12z m172 -3 c0 -10 -10
-15 -30 -15 -20 0 -30 -5 -30 -15 0 -9 9 -15 25 -15 16 0 25 -6 25 -15 0 -9
-9 -15 -25 -15 -16 0 -25 -6 -25 -15 0 -10 10 -15 30 -15 20 0 30 -5 30 -15 0
-11 -12 -15 -50 -15 l-50 0 0 75 0 75 50 0 c38 0 50 -4 50 -15z m140 -6 c0
-18 -4 -20 -25 -15 -34 9 -31 -2 7 -34 29 -25 31 -30 21 -52 -12 -26 -40 -36
-81 -30 -35 5 -24 38 11 34 34 -3 35 15 3 30 -33 14 -40 36 -21 64 21 33 85
35 85 3z m160 6 c0 -8 -6 -15 -14 -15 -19 0 -24 -18 -22 -73 2 -43 0 -47 -21
-47 -21 0 -23 4 -23 60 0 47 -3 60 -15 60 -8 0 -15 7 -15 15 0 12 13 15 55 15
42 0 55 -3 55 -15z m145 -47 c9 -34 19 -68 22 -75 7 -17 -21 -17 -47 -1 -16
10 -24 10 -40 0 -43 -27 -50 -17 -29 50 26 89 26 88 52 88 21 0 27 -8 42 -62z
m113 -1 c3 -49 6 -57 22 -57 18 0 20 7 20 60 0 53 2 60 20 60 18 0 20 -7 20
-64 0 -71 -10 -87 -60 -88 -43 -1 -60 20 -66 81 -5 58 0 74 24 69 13 -2 18
-17 20 -61z m240 51 c15 -15 16 -64 1 -73 -7 -5 -5 -15 5 -31 21 -31 20 -34
-8 -34 -16 0 -27 7 -31 20 -3 11 -11 20 -16 20 -5 0 -9 -9 -9 -20 0 -13 -7
-20 -20 -20 -18 0 -20 7 -20 75 l0 75 43 0 c24 0 48 -5 55 -12z m167 -45 c9
-32 18 -66 21 -75 4 -13 0 -18 -15 -18 -12 0 -21 5 -21 10 0 6 -11 10 -25 10
-14 0 -25 -4 -25 -10 0 -5 -11 -10 -24 -10 l-25 0 26 75 c21 65 28 75 48 75
20 0 26 -9 40 -57z m138 20 l22 -38 5 35 c3 23 11 36 23 38 15 3 17 -6 17 -72
0 -73 -1 -76 -23 -76 -16 0 -30 11 -45 38 l-22 37 0 -37 c0 -31 -4 -38 -20
-38 -18 0 -20 7 -20 75 0 69 2 75 20 75 13 0 29 -14 43 -37z m227 23 c0 -7 -9
-16 -20 -19 -11 -3 -20 -9 -19 -14 1 -4 1 -29 0 -55 -1 -41 -4 -48 -21 -48
-18 0 -20 7 -20 60 0 47 -3 60 -15 60 -8 0 -15 7 -15 15 0 12 13 15 55 15 40
0 55 -4 55 -14z"/>
<path d="M3096 4311 c-4 -7 -5 -15 -2 -18 9 -9 19 4 14 18 -4 11 -6 11 -12 0z"/>
<path d="M3470 4000 c-9 -6 -10 -10 -3 -10 6 0 15 5 18 10 8 12 4 12 -15 0z"/>
<path d="M817 3724 c-8 -8 1 -24 14 -24 5 0 9 7 9 15 0 15 -12 20 -23 9z"/>
<path d="M890 3675 c0 -8 7 -15 15 -15 8 0 15 7 15 15 0 8 -7 15 -15 15 -8 0
-15 -7 -15 -15z"/>
<path d="M3720 3640 c-9 -6 -10 -10 -3 -10 6 0 15 5 18 10 8 12 4 12 -15 0z"/>
<path d="M2654 3301 c3 -5 15 -7 26 -4 28 7 25 13 -6 13 -14 0 -23 -4 -20 -9z"/>
<path d="M2685 3240 c-3 -5 3 -10 14 -10 11 0 23 5 26 10 3 6 -3 10 -14 10
-11 0 -23 -4 -26 -10z"/>
<path d="M2153 3230 c-13 -5 -23 -11 -23 -13 0 -8 50 5 56 14 6 11 -4 11 -33
-1z"/>
<path d="M2263 3233 c9 -2 25 -2 35 0 9 3 1 5 -18 5 -19 0 -27 -2 -17 -5z"/>
<path d="M2635 3220 c-3 -5 -1 -10 4 -10 6 0 11 5 11 10 0 6 -2 10 -4 10 -3 0
-8 -4 -11 -10z"/>
<path d="M2555 3200 c-3 -5 1 -10 10 -10 9 0 13 5 10 10 -3 6 -8 10 -10 10 -2
0 -7 -4 -10 -10z"/>
<path d="M3858 3173 c6 -2 18 -2 25 0 6 3 1 5 -13 5 -14 0 -19 -2 -12 -5z"/>
<path d="M2316 2912 c-2 -4 -2 -22 0 -39 2 -22 -1 -33 -9 -33 -8 0 -8 -3 2 -9
7 -5 11 -13 7 -19 -3 -6 -1 -21 4 -34 10 -23 10 -23 6 0 -2 12 0 22 6 22 6 0
8 7 4 15 -3 10 1 15 11 15 14 0 14 2 -3 15 -13 10 -14 14 -5 15 11 0 11 3 1
15 -9 10 -9 15 -1 15 6 0 11 4 11 9 0 11 -28 22 -34 13z"/>
<path d="M2370 2910 c0 -13 40 -13 60 0 11 7 5 10 -22 10 -21 0 -38 -4 -38
-10z"/>
<path d="M2164 2881 c-12 -12 0 -18 39 -18 41 -1 92 15 57 17 -56 4 -92 4 -96
1z"/>
<path d="M2380 2866 c-11 -22 -11 -28 0 -39 10 -10 12 -9 7 6 -5 13 -1 17 16
17 13 0 17 3 11 8 -6 4 -13 13 -15 20 -3 9 -10 5 -19 -12z"/>
<path d="M2186 2811 c-4 -7 -5 -15 -2 -18 9 -9 19 4 14 18 -4 11 -6 11 -12 0z"/>
<path d="M2360 2795 c0 -14 6 -21 20 -21 22 0 24 4 10 26 -9 13 -10 13 -10 0
0 -13 -1 -13 -10 0 -8 12 -10 11 -10 -5z"/>
<path d="M2245 2760 c-4 -6 3 -10 14 -10 25 0 27 6 6 13 -8 4 -17 2 -20 -3z"/>
<path d="M1300 1871 c-44 -6 -45 -7 -48 -43 l-3 -38 66 0 66 0 -3 42 c-3 47
-6 49 -78 39z"/>
<path d="M1715 1868 c-2 -7 -5 -34 -8 -60 l-5 -48 63 0 62 0 -8 48 c-4 26 -8
53 -8 60 -1 8 -17 12 -46 12 -28 0 -47 -5 -50 -12z"/>
<path d="M1530 1311 c0 -12 6 -21 16 -21 9 0 14 7 12 17 -5 25 -28 28 -28 4z"/>
<path d="M2156 1291 c-4 -7 -5 -15 -2 -18 9 -9 19 4 14 18 -4 11 -6 11 -12 0z"/>
<path d="M2500 1311 c0 -12 6 -21 16 -21 9 0 14 7 12 17 -5 25 -28 28 -28 4z"/>
<path d="M2676 1285 c-3 -8 -1 -15 4 -15 6 0 10 7 10 15 0 8 -2 15 -4 15 -2 0
-6 -7 -10 -15z"/>
</g>
</svg>
